<svg xmlns="http://www.w3.org/2000/svg" overflow="visible" viewBox="0 0 954 600"><g class="x axis" transform="translate(0, 570)"><g class="x axis tick-container" transform="translate(0, 10)"><g class="x axis tick" transform="translate(84, 0)"><line stroke="rgb(27, 30, 35)" y2="6"/><text dy="0.71em" font-family="B612 Mono" font-size="5pt" text-anchor="middle" y="9">July</text></g><g class="x axis tick" transform="translate(129, 0)"><line stroke="rgb(27, 30, 35)" y2="6"/><text dy="0.71em" font-family="B612 Mono" font-size="5pt" text-anchor="middle" y="9">October</text></g><g class="x axis tick" transform="translate(174, 0)"><line stroke="rgb(27, 30, 35)" y2="6"/><text dy="0.71em" font-family="B612 Mono" font-size="5pt" text-anchor="middle" y="9">2008</text></g><g class="x axis tick" transform="translate(218, 0)"><line stroke="rgb(27, 30, 35)" y2="6"/><text dy="0.71em" font-family="B612 Mono" font-size="5pt" text-anchor="middle" y="9">April</text></g><g class="x axis tick" transform="translate(263, 0)"><line stroke="rgb(27, 30, 35)" y2="6"/><text dy="0.71em" font-family="B612 Mono" font-size="5pt" text-anchor="middle" y="9">July</text></g><g class="x axis tick" transform="translate(307, 0)"><line stroke="rgb(27, 30, 35)" y2="6"/><text dy="0.71em" font-family="B612 Mono" font-size="5pt" text-anchor="middle" y="9">October</text></g><g class="x axis tick" transform="translate(352, 0)"><line stroke="rgb(27, 30, 35)" y2="6"/><text dy="0.71em" font-family="B612 Mono" font-size="5pt" text-anchor="middle" y="9">2009</text></g><g class="x axis tick" transform="translate(396, 0)"><line stroke="rgb(27, 30, 35)" y2="6"/><text dy="0.71em" font-family="B612 Mono" font-size="5pt" text-anchor="middle" y="9">April</text></g><g class="x axis tick" transform="translate(440, 0)"><line stroke="rgb(27, 30, 35)" y2="6"/><text dy="0.71em" font-family="B612 Mono" font-size="5pt" text-anchor="middle" y="9">July</text></g><g class="x axis tick" transform="translate(485, 0)"><line stroke="rgb(27, 30, 35)" y2="6"/><text dy="0.71em" font-family="B612 Mono" font-size="5pt" text-anchor="middle" y="9">October</text></g><g class="x axis tick" transform="translate(530, 0)"><line stroke="rgb(27, 30, 35)" y2="6"/><text dy="0.71em" font-family="B612 Mono" font-size="5pt" text-anchor="middle" y="9">2010</text></g><g class="x axis tick" transform="translate(574, 0)"><line stroke="rgb(27, 30, 35)" y2="6"/><text dy="0.71em" font-family="B612 Mono" font-size="5pt" text-anchor="middle" y="9">April</text></g><g class="x axis tick" transform="translate(618, 0)"><line stroke="rgb(27, 30, 35)" y2="6"/><text dy="0.71em" font-family="B612 Mono" font-size="5pt" text-anchor="middle" y="9">July</text></g><g class="x axis tick" transform="translate(663, 0)"><line stroke="rgb(27, 30, 35)" y2="6"/><text dy="0.71em" font-family="B612 Mono" font-size="5pt" text-anchor="middle" y="9">October</text></g><g class="x axis tick" transform="translate(708, 0)"><line stroke="rgb(27, 30, 35)" y2="6"/><text dy="0.71em" font-family="B612 Mono" font-size="5pt" text-anchor="middle" y="9">2011</text></g><g class="x axis tick" transform="translate(752, 0)"><line stroke="rgb(27, 30, 35)" y2="6"/><text dy="0.71em" font-family="B612 Mono" font-size="5pt" text-anchor="middle" y="9">April</text></g><g class="x axis tick" transform="translate(796, 0)"><line stroke="rgb(27, 30, 35)" y2="6"/><text dy="0.71em" font-family="B612 Mono" font-size="5pt" text-anchor="middle" y="9">July</text></g><g class="x axis tick" transform="translate(841, 0)"><line stroke="rgb(27, 30, 35)" y2="6"/><text dy="0.71em" font-family="B612 Mono" font-size="5pt" text-anchor="middle" y="9">October</text></g><g class="x axis tick" transform="translate(886, 0)"><line stroke="rgb(27, 30, 35)" y2="6"/><text dy="0.71em" font-family="B612 Mono" font-size="5pt" text-anchor="middle" y="9">2012</text></g><g class="x axis tick" transform="translate(930, 0)"><line stroke="rgb(27, 30, 35)" y2="6"/><text dy="0.71em" font-family="B612 Mono" font-size="5pt" text-anchor="middle" y="9">April</text></g></g></g><g class="y axis" transform="translate(40,0)"><text dy="0.32em" font-family="B612 Mono" font-size="5pt" font-weight="bold" transform="translate(0, 25)" x="4">$ Close</text><g class="x axis tick-container"><g class="y axis tick" transform="translate(0, 487)"><text dy="0.32em" fill="#1b191d" font-family="B612 Mono" font-size="5pt" text-anchor="end" x="-9">100</text><line stroke="rgb(27, 30, 35)" stroke-width="1px" x2="-6"/><line stroke="rgb(27, 30, 35)" stroke-opacity="0.1" stroke-width="1px" x2="894"/></g><g class="y axis tick" transform="translate(0, 382)"><text dy="0.32em" fill="#1b191d" font-family="B612 Mono" font-size="5pt" text-anchor="end" x="-9">150</text><line stroke="rgb(27, 30, 35)" stroke-width="1px" x2="-6"/><line stroke="rgb(27, 30, 35)" stroke-opacity="0.1" stroke-width="1px" x2="894"/></g><g class="y axis tick" transform="translate(0, 308)"><text dy="0.32em" fill="#1b191d" font-family="B612 Mono" font-size="5pt" text-anchor="end" x="-9">200</text><line stroke="rgb(27, 30, 35)" stroke-width="1px" x2="-6"/><line stroke="rgb(27, 30, 35)" stroke-opacity="0.1" stroke-width="1px" x2="894"/></g><g class="y axis tick" transform="translate(0, 251)"><text dy="0.32em" fill="#1b191d" font-family="B612 Mono" font-size="5pt" text-anchor="end" x="-9">250</text><line stroke="rgb(27, 30, 35)" stroke-width="1px" x2="-6"/><line stroke="rgb(27, 30, 35)" stroke-opacity="0.1" stroke-width="1px" x2="894"/></g><g class="y axis tick" transform="translate(0, 204)"><text dy="0.32em" fill="#1b191d" font-family="B612 Mono" font-size="5pt" text-anchor="end" x="-9">300</text><line stroke="rgb(27, 30, 35)" stroke-width="1px" x2="-6"/><line stroke="rgb(27, 30, 35)" stroke-opacity="0.1" stroke-width="1px" x2="894"/></g><g class="y axis tick" transform="translate(0, 164)"><text dy="0.32em" fill="#1b191d" font-family="B612 Mono" font-size="5pt" text-anchor="end" x="-9">350</text><line stroke="rgb(27, 30, 35)" stroke-width="1px" x2="-6"/><line stroke="rgb(27, 30, 35)" stroke-opacity="0.1" stroke-width="1px" x2="894"/></g><g class="y axis tick" transform="translate(0, 130)"><text dy="0.32em" fill="#1b191d" font-family="B612 Mono" font-size="5pt" text-anchor="end" x="-9">400</text><line stroke="rgb(27, 30, 35)" stroke-width="1px" x2="-6"/><line stroke="rgb(27, 30, 35)" stroke-opacity="0.1" stroke-width="1px" x2="894"/></g><g class="y axis tick" transform="translate(0, 99)"><text dy="0.32em" fill="#1b191d" font-family="B612 Mono" font-size="5pt" text-anchor="end" x="-9">450</text><line stroke="rgb(27, 30, 35)" stroke-width="1px" x2="-6"/><line stroke="rgb(27, 30, 35)" stroke-opacity="0.1" stroke-width="1px" x2="894"/></g><g class="y axis tick" transform="translate(0, 72)"><text dy="0.32em" fill="#1b191d" font-family="B612 Mono" font-size="5pt" text-anchor="end" x="-9">500</text><line stroke="rgb(27, 30, 35)" stroke-width="1px" x2="-6"/><line stroke="rgb(27, 30, 35)" stroke-opacity="0.1" stroke-width="1px" x2="894"/></g><g class="y axis tick" transform="translate(0, 48)"><text dy="0.32em" fill="#1b191d" font-family="B612 Mono" font-size="5pt" text-anchor="end" x="-9">550</text><line stroke="rgb(27, 30, 35)" stroke-width="1px" x2="-6"/><line stroke="rgb(27, 30, 35)" stroke-opacity="0.1" stroke-width="1px" x2="894"/></g><g class="y axis tick" transform="translate(0, 25)"><text dy="0.32em" fill="#1b191d" font-family="B612 Mono" font-size="5pt" text-anchor="end" x="-9">600</text><line stroke="rgb(27, 30, 35)" stroke-width="1px" x2="-6"/><line stroke="rgb(27, 30, 35)" stroke-opacity="0.1" stroke-width="1px" x2="894"/></g></g></g><path d="M 40 505 L 40 499 L 41 490 L 41 487 L 43 487 L 44 488 L 44 486 L 45 486 L 45 485 L 47 477 L 47 474 L 48 470 L 48 468 L 48 465 L 50 464 L 50 468 L 51 468 L 51 463 L 52 462 L 53 458 L 54 454 L 54 455 L 55 460 L 55 454 L 57 452 L 58 442 L 58 437 L 59 443 L 60 437 L 61 434 L 61 432 L 62 431 L 62 430 L 63 439 L 64 439 L 64 445 L 65 442 L 65 439 L 67 429 L 67 432 L 68 436 L 68 431 L 69 433 L 70 435 L 71 440 L 71 436 L 72 438 L 72 435 L 74 437 L 75 425 L 76 414 L 76 415 L 78 418 L 78 414 L 78 414 L 78 411 L 79 404 L 80 404 L 81 402 L 81 403 L 82 400 L 82 393 L 84 393 L 84 410 L 85 405 L 85 389 L 86 393 L 87 397 L 88 416 L 89 409 L 89 407 L 90 415 L 91 409 L 92 409 L 92 411 L 93 426 L 93 429 L 94 423 L 95 431 L 95 440 L 96 446 L 96 435 L 97 435 L 98 424 L 98 414 L 99 417 L 99 409 L 101 415 L 101 425 L 102 411 L 102 407 L 103 403 L 105 392 L 106 406 L 106 409 L 107 416 L 108 406 L 108 408 L 109 406 L 109 405 L 110 402 L 111 403 L 112 398 L 112 399 L 113 399 L 113 392 L 115 385 L 115 377 L 116 377 L 116 375 L 116 376 L 118 372 L 119 368 L 119 369 L 120 372 L 120 363 L 122 353 L 122 353 L 122 355 L 123 362 L 123 354 L 125 355 L 125 351 L 126 346 L 126 345 L 127 349 L 128 343 L 129 327 L 129 327 L 130 331 L 130 329 L 132 328 L 132 325 L 133 321 L 134 325 L 134 324 L 135 327 L 136 319 L 136 326 L 137 342 L 137 357 L 138 376 L 139 350 L 139 356 L 140 359 L 140 355 L 142 359 L 142 352 L 143 352 L 144 348 L 145 346 L 146 343 L 146 335 L 147 329 L 147 332 L 149 337 L 150 336 L 150 327 L 151 321 L 151 316 L 152 316 L 153 323 L 153 320 L 154 319 L 154 321 L 155 329 L 156 331 L 156 331 L 157 325 L 157 316 L 159 310 L 160 309 L 160 310 L 161 308 L 162 311 L 164 315 L 164 315 L 165 335 L 166 339 L 167 348 L 167 336 L 167 338 L 168 346 L 169 337 L 170 351 L 170 366 L 171 364 L 171 363 L 173 373 L 173 402 L 174 408 L 174 419 L 176 419 L 176 416 L 177 415 L 177 409 L 178 412 L 180 416 L 180 420 L 181 435 L 181 437 L 182 428 L 183 420 L 183 429 L 184 420 L 184 424 L 185 430 L 187 435 L 187 432 L 188 436 L 188 441 L 190 440 L 190 442 L 191 433 L 191 419 L 192 429 L 193 436 L 194 430 L 194 430 L 195 438 L 195 435 L 196 440 L 197 424 L 197 427 L 198 423 L 198 426 L 200 426 L 200 414 L 201 420 L 201 413 L 203 401 L 204 398 L 204 391 L 205 400 L 205 395 L 207 394 L 208 383 L 208 387 L 209 379 L 209 377 L 211 372 L 211 377 L 211 380 L 211 375 L 212 387 L 213 386 L 214 385 L 214 376 L 215 375 L 215 364 L 217 353 L 217 365 L 218 361 L 218 352 L 219 350 L 220 347 L 221 342 L 221 344 L 222 335 L 223 334 L 224 329 L 225 326 L 225 332 L 226 328 L 226 330 L 227 324 L 228 321 L 228 326 L 229 322 L 229 325 L 230 330 L 231 327 L 231 338 L 232 340 L 232 334 L 234 326 L 235 325 L 235 326 L 236 323 L 238 327 L 238 328 L 239 328 L 239 322 L 240 327 L 241 333 L 241 327 L 242 334 L 242 345 L 243 346 L 244 340 L 245 333 L 245 337 L 246 334 L 246 342 L 248 345 L 248 345 L 249 339 L 249 353 L 249 350 L 251 354 L 252 343 L 252 353 L 253 350 L 255 342 L 255 336 L 256 344 L 256 340 L 256 346 L 258 344 L 258 351 L 259 346 L 259 347 L 260 357 L 261 356 L 262 362 L 262 356 L 263 367 L 263 362 L 265 375 L 265 370 L 266 366 L 266 367 L 267 371 L 268 377 L 269 365 L 269 359 L 270 360 L 270 351 L 271 345 L 272 340 L 272 336 L 273 336 L 273 341 L 275 342 L 275 345 L 276 341 L 276 344 L 277 340 L 278 346 L 279 345 L 279 343 L 280 344 L 280 351 L 283 356 L 283 355 L 284 364 L 284 365 L 286 369 L 286 379 L 286 379 L 287 378 L 287 384 L 288 399 L 289 400 L 289 423 L 290 411 L 290 398 L 292 417 L 292 425 L 293 422 L 293 415 L 294 423 L 295 473 L 296 454 L 297 464 L 297 486 L 298 494 L 299 491 L 300 516 L 300 514 L 301 517 L 301 495 L 302 461 L 303 476 L 303 492 L 304 482 L 304 493 L 306 491 L 306 510 L 306 495 L 307 491 L 307 496 L 309 508 L 309 487 L 310 475 L 310 460 L 311 468 L 313 469 L 313 460 L 314 478 L 314 489 L 315 491 L 316 497 L 316 500 L 317 513 L 317 496 L 318 513 L 319 519 L 320 514 L 320 525 L 321 543 L 321 536 L 323 505 L 323 512 L 324 500 L 324 500 L 325 506 L 326 517 L 327 507 L 327 497 L 328 510 L 328 503 L 330 487 L 330 487 L 330 491 L 331 500 L 331 491 L 333 501 L 333 499 L 334 516 L 334 515 L 335 514 L 336 526 L 337 524 L 337 528 L 338 528 L 338 526 L 340 524 L 340 525 L 341 527 L 342 527 L 342 512 L 344 501 L 344 505 L 344 511 L 345 506 L 345 512 L 346 518 L 347 520 L 347 528 L 348 533 L 348 537 L 350 550 L 351 535 L 351 519 L 352 519 L 353 515 L 354 512 L 354 502 L 355 505 L 355 513 L 357 510 L 358 505 L 358 504 L 359 496 L 359 487 L 361 480 L 361 492 L 361 495 L 362 489 L 362 489 L 364 501 L 364 502 L 365 512 L 365 510 L 367 523 L 367 513 L 368 510 L 368 516 L 369 516 L 371 520 L 371 519 L 372 510 L 372 517 L 373 528 L 374 534 L 374 518 L 375 506 L 375 496 L 376 497 L 377 499 L 378 488 L 378 483 L 379 483 L 379 483 L 381 468 L 381 470 L 382 470 L 382 462 L 382 470 L 384 475 L 384 474 L 385 465 L 386 456 L 386 448 L 388 443 L 388 451 L 389 448 L 389 441 L 389 441 L 391 439 L 391 443 L 392 445 L 392 437 L 393 432 L 394 439 L 395 436 L 395 436 L 396 428 L 396 431 L 398 430 L 398 431 L 399 429 L 399 427 L 400 425 L 401 415 L 402 414 L 402 414 L 403 421 L 403 421 L 404 420 L 405 430 L 405 441 L 406 433 L 406 435 L 408 426 L 408 424 L 409 427 L 409 431 L 410 434 L 412 418 L 412 413 L 413 409 L 413 408 L 415 401 L 416 401 L 416 398 L 417 393 L 417 392 L 419 393 L 419 395 L 419 400 L 420 400 L 420 406 L 421 407 L 422 407 L 422 408 L 423 408 L 423 401 L 425 405 L 425 411 L 426 407 L 426 400 L 427 396 L 428 396 L 429 396 L 430 395 L 430 400 L 431 400 L 432 403 L 433 409 L 433 405 L 434 407 L 434 403 L 435 396 L 436 396 L 436 388 L 437 387 L 437 379 L 439 377 L 439 380 L 439 371 L 440 369 L 440 366 L 442 365 L 442 366 L 443 366 L 443 361 L 444 360 L 446 355 L 446 357 L 447 357 L 447 359 L 448 357 L 449 358 L 450 357 L 450 352 L 451 355 L 452 366 L 453 359 L 453 358 L 454 356 L 454 351 L 456 351 L 456 351 L 457 354 L 457 351 L 458 350 L 459 353 L 460 357 L 460 357 L 461 355 L 461 349 L 463 346 L 464 348 L 464 346 L 464 347 L 466 344 L 466 342 L 467 333 L 467 329 L 468 328 L 469 330 L 470 329 L 470 327 L 471 330 L 471 332 L 473 327 L 473 328 L 474 328 L 475 334 L 475 328 L 477 327 L 477 321 L 477 321 L 478 322 L 478 321 L 479 320 L 480 321 L 480 320 L 481 321 L 481 324 L 483 322 L 483 310 L 484 302 L 484 301 L 485 303 L 486 305 L 487 312 L 487 318 L 488 313 L 488 323 L 490 322 L 491 323 L 491 320 L 492 316 L 492 315 L 494 306 L 494 304 L 494 304 L 495 306 L 495 302 L 497 300 L 497 299 L 497 301 L 498 307 L 498 308 L 500 301 L 500 302 L 501 303 L 501 303 L 502 307 L 503 308 L 504 312 L 505 313 L 505 313 L 506 317 L 507 323 L 508 321 L 508 311 L 508 313 L 509 315 L 510 312 L 511 316 L 511 315 L 512 319 L 512 314 L 514 310 L 514 308 L 515 305 L 515 297 L 516 297 L 517 294 L 517 297 L 518 294 L 518 295 L 519 295 L 521 291 L 521 290 L 522 294 L 522 295 L 523 293 L 524 295 L 524 298 L 525 295 L 525 296 L 526 301 L 527 301 L 528 289 L 528 293 L 529 298 L 529 311 L 531 304 L 531 301 L 532 298 L 532 309 L 533 319 L 535 315 L 535 313 L 535 309 L 536 319 L 536 314 L 538 316 L 538 313 L 538 314 L 539 310 L 539 308 L 541 308 L 541 304 L 542 305 L 542 304 L 543 306 L 544 308 L 545 312 L 545 307 L 546 306 L 546 302 L 548 297 L 549 297 L 549 296 L 550 295 L 550 285 L 552 285 L 552 280 L 552 278 L 553 277 L 553 276 L 554 279 L 555 278 L 555 279 L 556 278 L 556 281 L 558 278 L 558 274 L 559 273 L 559 276 L 560 271 L 561 269 L 562 266 L 562 267 L 563 265 L 564 265 L 565 263 L 566 262 L 566 260 L 567 261 L 567 259 L 568 259 L 569 259 L 569 255 L 570 252 L 570 253 L 572 254 L 572 256 L 573 241 L 573 234 L 573 230 L 575 231 L 575 239 L 576 239 L 576 232 L 577 239 L 579 234 L 579 242 L 580 245 L 580 255 L 581 266 L 582 247 L 582 244 L 583 238 L 583 242 L 584 247 L 585 246 L 586 248 L 586 252 L 587 264 L 587 259 L 589 254 L 589 256 L 590 257 L 590 247 L 591 244 L 592 244 L 593 240 L 593 237 L 594 237 L 594 245 L 596 250 L 596 251 L 597 258 L 597 250 L 597 247 L 599 246 L 599 241 L 600 233 L 600 229 L 601 227 L 602 231 L 603 227 L 603 230 L 604 232 L 604 234 L 606 232 L 606 244 L 607 249 L 608 252 L 608 254 L 610 254 L 610 252 L 611 242 L 611 242 L 611 241 L 612 243 L 613 249 L 613 248 L 614 249 L 614 251 L 616 255 L 616 249 L 617 246 L 617 241 L 618 241 L 619 241 L 620 237 L 620 240 L 621 242 L 621 243 L 623 239 L 624 239 L 624 238 L 625 239 L 625 240 L 627 239 L 627 241 L 627 250 L 628 249 L 628 252 L 630 253 L 630 249 L 630 247 L 631 251 L 631 251 L 633 255 L 633 261 L 634 258 L 634 261 L 635 259 L 636 258 L 637 258 L 638 250 L 638 248 L 639 242 L 640 242 L 641 243 L 641 238 L 642 237 L 642 237 L 643 234 L 644 233 L 644 231 L 645 225 L 645 226 L 647 218 L 647 218 L 648 214 L 648 213 L 649 210 L 650 211 L 650 215 L 651 215 L 651 218 L 652 219 L 654 223 L 654 213 L 655 213 L 655 213 L 656 209 L 657 208 L 657 205 L 658 204 L 658 202 L 659 191 L 660 189 L 661 196 L 661 195 L 662 196 L 662 197 L 664 196 L 664 197 L 665 197 L 665 199 L 666 203 L 668 200 L 668 196 L 668 193 L 669 188 L 669 189 L 671 188 L 671 190 L 671 189 L 672 190 L 672 197 L 674 198 L 674 202 L 675 203 L 675 197 L 676 198 L 677 192 L 678 196 L 678 191 L 679 191 L 681 190 L 681 194 L 682 190 L 683 189 L 683 189 L 685 187 L 685 188 L 686 186 L 686 187 L 686 187 L 687 186 L 688 187 L 688 187 L 689 186 L 689 187 L 691 185 L 691 184 L 692 183 L 692 184 L 694 183 L 695 183 L 695 183 L 696 184 L 696 185 L 698 179 L 699 178 L 699 176 L 700 176 L 700 174 L 701 170 L 702 170 L 702 168 L 703 167 L 703 165 L 705 171 L 706 172 L 706 177 L 706 182 L 708 173 L 708 170 L 709 169 L 709 169 L 710 174 L 711 172 L 712 168 L 713 168 L 713 169 L 714 167 L 715 163 L 716 160 L 716 158 L 716 161 L 717 159 L 718 157 L 719 157 L 719 154 L 720 158 L 720 164 L 722 172 L 723 169 L 723 169 L 724 165 L 725 162 L 726 164 L 726 162 L 727 157 L 727 157 L 729 160 L 729 160 L 730 162 L 730 166 L 730 162 L 732 161 L 732 167 L 733 179 L 733 176 L 734 179 L 735 172 L 736 171 L 736 172 L 737 168 L 737 163 L 739 164 L 739 163 L 740 165 L 740 165 L 741 168 L 743 171 L 743 172 L 744 173 L 744 173 L 744 175 L 745 178 L 746 177 L 746 174 L 747 177 L 747 181 L 749 178 L 749 173 L 750 170 L 750 163 L 752 162 L 753 164 L 753 164 L 754 166 L 754 164 L 756 167 L 757 165 L 757 164 L 758 166 L 758 166 L 760 166 L 760 164 L 760 166 L 761 166 L 761 171 L 763 177 L 763 174 L 763 172 L 764 171 L 764 175 L 766 176 L 766 177 L 767 174 L 767 175 L 768 173 L 770 166 L 771 167 L 771 167 L 772 169 L 773 173 L 774 178 L 774 177 L 775 178 L 775 182 L 776 182 L 777 177 L 777 182 L 778 183 L 778 187 L 780 191 L 780 183 L 781 185 L 781 178 L 782 182 L 783 178 L 783 175 L 784 176 L 784 175 L 785 169 L 787 164 L 788 163 L 788 159 L 789 157 L 790 161 L 790 161 L 791 158 L 791 158 L 792 153 L 793 147 L 794 145 L 794 138 L 795 138 L 795 134 L 797 131 L 797 127 L 798 134 L 798 135 L 799 136 L 801 132 L 801 137 L 801 134 L 802 145 L 802 147 L 804 162 L 804 147 L 804 154 L 805 147 L 805 145 L 807 140 L 807 142 L 808 142 L 808 152 L 809 160 L 810 159 L 811 147 L 811 145 L 812 147 L 812 140 L 814 136 L 814 136 L 815 140 L 816 142 L 816 147 L 818 143 L 819 140 L 819 140 L 820 144 L 820 143 L 821 140 L 821 137 L 822 134 L 822 129 L 824 122 L 824 121 L 825 122 L 825 128 L 826 127 L 827 128 L 828 130 L 828 131 L 829 136 L 829 142 L 831 146 L 832 148 L 832 144 L 833 145 L 833 150 L 834 137 L 835 129 L 835 128 L 836 124 L 836 116 L 838 117 L 838 116 L 839 130 L 839 133 L 839 134 L 841 126 L 841 131 L 842 129 L 842 127 L 843 126 L 844 126 L 845 132 L 846 131 L 846 128 L 847 129 L 848 130 L 849 126 L 849 133 L 849 139 L 850 140 L 851 143 L 852 137 L 852 140 L 853 145 L 853 146 L 855 150 L 855 145 L 856 152 L 857 154 L 858 145 L 858 147 L 859 141 L 860 137 L 860 136 L 862 134 L 862 135 L 863 137 L 863 136 L 864 134 L 865 135 L 865 137 L 866 143 L 866 143 L 867 142 L 868 141 L 869 132 L 869 132 L 870 130 L 870 127 L 872 125 L 873 128 L 873 126 L 874 126 L 876 122 L 877 121 L 877 118 L 877 116 L 879 116 L 879 115 L 879 115 L 880 116 L 880 117 L 882 114 L 883 111 L 883 112 L 884 117 L 885 112 L 886 117 L 886 101 L 887 102 L 887 101 L 889 97 L 889 96 L 890 96 L 891 96 L 891 94 L 893 91 L 893 89 L 894 84 L 894 76 L 894 75 L 896 71 L 896 67 L 896 73 L 897 71 L 897 71 L 899 65 L 900 65 L 900 64 L 901 61 L 902 59 L 903 54 L 903 51 L 904 50 L 905 50 L 906 56 L 907 57 L 907 57 L 908 51 L 908 50 L 909 47 L 910 39 L 910 30 L 911 31 L 911 31 L 913 25 L 913 23 L 914 24 L 914 25 L 915 27 L 916 22 L 916 19 L 917 18 L 917 21 L 918 25 L 920 17 L 920 13 L 921 15 L 921 11 L 923 10 L 923 13 L 924 14 L 924 16 L 925 23 L 926 34 L 927 21 L 927 22 L 928 31 L 928 37 L 930 38 L 930 43 L 931 21 L 931 22 L 932 24 L 933 32 L 934 33" fill="none" stroke="grey" stroke-linecap="round" stroke-linejoin="round" stroke-width="1.5"/><path d="M 53 505 L 54 501 L 54 497 L 55 495 L 55 493 L 57 491 L 58 490 L 58 489 L 59 486 L 60 483 L 61 482 L 61 481 L 62 480 L 62 479 L 63 477 L 64 475 L 64 472 L 65 468 L 65 465 L 67 463 L 67 461 L 68 459 L 68 456 L 69 452 L 70 449 L 71 446 L 71 445 L 72 445 L 72 444 L 74 444 L 75 445 L 76 449 L 76 451 L 78 451 L 78 452 L 78 452 L 78 451 L 79 451 L 80 451 L 81 451 L 81 451 L 82 450 L 82 450 L 84 450 L 84 447 L 85 443 L 85 441 L 86 436 L 87 431 L 88 426 L 89 424 L 89 423 L 90 423 L 91 421 L 92 420 L 92 420 L 93 423 L 93 428 L 94 430 L 95 434 L 95 440 L 96 446 L 96 448 L 97 450 L 98 451 L 98 451 L 99 449 L 99 447 L 101 445 L 101 446 L 102 446 L 102 446 L 103 446 L 105 449 L 106 449 L 106 449 L 107 448 L 108 447 L 108 446 L 109 445 L 109 441 L 110 434 L 111 430 L 112 425 L 112 423 L 113 422 L 113 421 L 115 423 L 115 425 L 116 422 L 116 423 L 116 423 L 118 424 L 119 426 L 119 425 L 120 423 L 120 420 L 122 420 L 122 419 L 122 416 L 123 412 L 123 409 L 125 405 L 125 402 L 126 398 L 126 393 L 127 388 L 128 385 L 129 386 L 129 386 L 130 384 L 130 382 L 132 380 L 132 378 L 133 375 L 134 371 L 134 368 L 135 367 L 136 366 L 136 363 L 137 359 L 137 360 L 138 366 L 139 365 L 139 367 L 140 369 L 140 370 L 142 373 L 142 374 L 143 376 L 144 377 L 145 377 L 146 377 L 146 377 L 147 376 L 147 375 L 149 375 L 150 374 L 150 373 L 151 373 L 151 376 L 152 376 L 153 370 L 153 369 L 154 367 L 154 364 L 155 360 L 156 356 L 156 353 L 157 349 L 157 346 L 159 343 L 160 341 L 160 340 L 161 340 L 162 339 L 164 336 L 164 334 L 165 335 L 166 339 L 167 344 L 167 346 L 167 348 L 168 351 L 169 353 L 170 357 L 170 364 L 171 369 L 171 374 L 173 381 L 173 394 L 174 406 L 174 419 L 176 430 L 176 438 L 177 444 L 177 447 L 178 449 L 180 453 L 180 458 L 181 465 L 181 470 L 182 471 L 183 470 L 183 466 L 184 461 L 184 460 L 185 456 L 187 450 L 187 442 L 188 442 L 188 444 L 190 446 L 190 448 L 191 449 L 191 449 L 192 447 L 193 447 L 194 446 L 194 445 L 195 445 L 195 445 L 196 446 L 197 446 L 197 446 L 198 446 L 198 445 L 200 446 L 200 447 L 201 447 L 201 448 L 203 449 L 204 450 L 204 452 L 205 451 L 205 453 L 207 453 L 208 453 L 208 452 L 209 452 L 209 449 L 211 447 L 211 441 L 211 438 L 211 434 L 212 430 L 213 425 L 214 418 L 214 415 L 215 408 L 215 405 L 217 406 L 217 404 L 218 403 L 218 402 L 219 400 L 220 399 L 221 400 L 221 399 L 222 399 L 223 400 L 224 401 L 225 401 L 225 398 L 226 397 L 226 391 L 227 386 L 228 380 L 228 375 L 229 369 L 229 365 L 230 363 L 231 357 L 231 352 L 232 350 L 232 347 L 234 344 L 235 342 L 235 339 L 236 338 L 238 338 L 238 338 L 239 338 L 239 337 L 240 337 L 241 338 L 241 338 L 242 338 L 242 342 L 243 345 L 244 346 L 245 346 L 245 346 L 246 346 L 246 346 L 248 348 L 248 350 L 249 350 L 249 353 L 249 355 L 251 357 L 252 357 L 252 359 L 253 358 L 255 358 L 255 358 L 256 356 L 256 356 L 256 356 L 258 356 L 258 357 L 259 356 L 259 356 L 260 357 L 261 359 L 262 361 L 262 362 L 263 365 L 263 367 L 265 371 L 265 374 L 266 376 L 266 377 L 267 380 L 268 383 L 269 382 L 269 382 L 270 381 L 270 380 L 271 380 L 272 381 L 272 383 L 273 384 L 273 385 L 275 385 L 275 385 L 276 385 L 276 383 L 277 383 L 278 379 L 279 377 L 279 374 L 280 372 L 280 368 L 283 362 L 283 360 L 284 361 L 284 363 L 286 367 L 286 373 L 286 378 L 287 382 L 287 387 L 288 395 L 289 402 L 289 414 L 290 421 L 290 425 L 292 431 L 292 438 L 293 443 L 293 445 L 294 447 L 295 461 L 296 469 L 297 476 L 297 489 L 298 501 L 299 510 L 300 525 L 300 537 L 301 547 L 301 550 L 302 549 L 303 549 L 303 554 L 304 554 L 304 550 L 306 549 L 306 551 L 306 548 L 307 538 L 307 527 L 309 529 L 309 525 L 310 524 L 310 527 L 311 527 L 313 528 L 313 525 L 314 520 L 314 515 L 315 515 L 316 515 L 316 517 L 317 521 L 317 522 L 318 525 L 319 529 L 320 530 L 320 535 L 321 543 L 321 550 L 323 549 L 323 551 L 324 551 L 324 549 L 325 547 L 326 546 L 327 540 L 327 538 L 328 537 L 328 536 L 330 537 L 330 539 L 330 539 L 331 539 L 331 538 L 333 537 L 333 536 L 334 535 L 334 528 L 335 522 L 336 526 L 337 528 L 337 532 L 338 536 L 338 538 L 340 539 L 340 541 L 341 543 L 342 545 L 342 545 L 344 544 L 344 542 L 344 540 L 345 540 L 345 538 L 346 537 L 347 536 L 347 537 L 348 539 L 348 542 L 350 547 L 351 548 L 351 547 L 352 547 L 353 546 L 354 546 L 354 546 L 355 545 L 355 544 L 357 544 L 358 544 L 358 544 L 359 545 L 359 547 L 361 550 L 361 550 L 361 550 L 362 548 L 362 545 L 364 540 L 364 531 L 365 525 L 365 524 L 367 525 L 367 525 L 368 524 L 368 526 L 369 528 L 371 529 L 371 530 L 372 530 L 372 532 L 373 535 L 374 539 L 374 537 L 375 536 L 375 536 L 376 535 L 377 533 L 378 535 L 378 538 L 379 540 L 379 541 L 381 543 L 381 544 L 382 545 L 382 545 L 382 544 L 384 540 L 384 537 L 385 535 L 386 532 L 386 526 L 388 518 L 388 512 L 389 507 L 389 505 L 389 501 L 391 496 L 391 493 L 392 490 L 392 487 L 393 483 L 394 482 L 395 479 L 395 476 L 396 475 L 396 472 L 398 466 L 398 460 L 399 455 L 399 452 L 400 451 L 401 453 L 402 452 L 402 451 L 403 450 L 403 449 L 404 448 L 405 446 L 405 445 L 406 444 L 406 445 L 408 443 L 408 442 L 409 441 L 409 441 L 410 441 L 412 441 L 412 441 L 413 442 L 413 442 L 415 443 L 416 445 L 416 446 L 417 448 L 417 450 L 419 450 L 419 450 L 419 448 L 420 444 L 420 441 L 421 437 L 422 434 L 422 432 L 423 429 L 423 424 L 425 417 L 425 416 L 426 415 L 426 414 L 427 413 L 428 413 L 429 413 L 430 413 L 430 413 L 431 413 L 432 412 L 433 413 L 433 413 L 434 413 L 434 413 L 435 413 L 436 413 L 436 413 L 437 413 L 437 415 L 439 417 L 439 415 L 439 416 L 440 417 L 440 419 L 442 420 L 442 420 L 443 420 L 443 419 L 444 418 L 446 416 L 446 412 L 447 408 L 447 403 L 448 397 L 449 393 L 450 388 L 450 384 L 451 380 L 452 378 L 453 375 L 453 371 L 454 369 L 454 368 L 456 368 L 456 367 L 457 366 L 457 364 L 458 364 L 459 363 L 460 364 L 460 364 L 461 363 L 461 363 L 463 364 L 464 363 L 464 363 L 464 363 L 466 364 L 466 361 L 467 363 L 467 364 L 468 365 L 469 365 L 470 366 L 470 366 L 471 365 L 471 364 L 473 363 L 473 362 L 474 359 L 475 356 L 475 352 L 477 350 L 477 349 L 477 347 L 478 344 L 478 341 L 479 338 L 480 335 L 480 335 L 481 335 L 481 334 L 483 334 L 483 335 L 484 338 L 484 339 L 485 339 L 486 339 L 487 338 L 487 337 L 488 334 L 488 333 L 490 332 L 491 332 L 491 332 L 492 332 L 492 331 L 494 331 L 494 330 L 494 330 L 495 329 L 495 328 L 497 327 L 497 327 L 497 327 L 498 327 L 498 327 L 500 327 L 500 327 L 501 326 L 501 325 L 502 323 L 503 321 L 504 318 L 505 316 L 505 315 L 506 316 L 507 319 L 508 322 L 508 322 L 508 323 L 509 323 L 510 323 L 511 323 L 511 323 L 512 324 L 512 325 L 514 324 L 514 323 L 515 323 L 515 324 L 516 326 L 517 327 L 517 328 L 518 329 L 518 329 L 519 328 L 521 327 L 521 325 L 522 324 L 522 323 L 523 321 L 524 320 L 524 317 L 525 315 L 525 311 L 526 308 L 527 305 L 528 303 L 528 301 L 529 301 L 529 305 L 531 306 L 531 307 L 532 307 L 532 309 L 533 313 L 535 316 L 535 318 L 535 318 L 536 321 L 536 322 L 538 324 L 538 324 L 538 325 L 539 325 L 539 325 L 541 325 L 541 323 L 542 322 L 542 321 L 543 321 L 544 321 L 545 321 L 545 320 L 546 320 L 546 319 L 548 319 L 549 320 L 549 320 L 550 319 L 550 320 L 552 320 L 552 321 L 552 321 L 553 321 L 553 321 L 554 320 L 555 320 L 555 319 L 556 317 L 556 315 L 558 313 L 558 309 L 559 305 L 559 301 L 560 298 L 561 296 L 562 294 L 562 291 L 563 287 L 564 286 L 565 286 L 566 285 L 566 286 L 567 285 L 567 285 L 568 284 L 569 283 L 569 283 L 570 282 L 570 280 L 572 278 L 572 276 L 573 277 L 573 277 L 573 279 L 575 279 L 575 278 L 576 277 L 576 276 L 577 273 L 579 272 L 579 270 L 580 268 L 580 267 L 581 268 L 582 267 L 582 265 L 583 263 L 583 262 L 584 261 L 585 260 L 586 259 L 586 260 L 587 264 L 587 265 L 589 265 L 589 266 L 590 267 L 590 266 L 591 266 L 592 265 L 593 265 L 593 266 L 594 266 L 594 262 L 596 263 L 596 263 L 597 264 L 597 264 L 597 264 L 599 264 L 599 264 L 600 265 L 600 263 L 601 263 L 602 262 L 603 261 L 603 259 L 604 258 L 604 258 L 606 257 L 606 258 L 607 259 L 608 261 L 608 262 L 610 263 L 610 263 L 611 260 L 611 260 L 611 259 L 612 259 L 613 259 L 613 260 L 614 261 L 614 261 L 616 262 L 616 261 L 617 260 L 617 259 L 618 259 L 619 257 L 620 258 L 620 258 L 621 257 L 621 256 L 623 255 L 624 254 L 624 254 L 625 254 L 625 254 L 627 254 L 627 253 L 627 254 L 628 253 L 628 254 L 630 253 L 630 253 L 630 253 L 631 254 L 631 255 L 633 257 L 633 260 L 634 261 L 634 263 L 635 265 L 636 266 L 637 266 L 638 266 L 638 265 L 639 265 L 640 264 L 641 264 L 641 265 L 642 266 L 642 267 L 643 267 L 644 268 L 644 269 L 645 270 L 645 270 L 647 271 L 647 269 L 648 268 L 648 266 L 649 264 L 650 261 L 650 256 L 651 253 L 651 250 L 652 247 L 654 245 L 654 242 L 655 239 L 655 236 L 656 234 L 657 231 L 657 229 L 658 227 L 658 226 L 659 227 L 660 228 L 661 228 L 661 228 L 662 228 L 662 227 L 664 227 L 664 226 L 665 224 L 665 222 L 666 220 L 668 216 L 668 214 L 668 212 L 669 209 L 669 208 L 671 206 L 671 205 L 671 204 L 672 203 L 672 203 L 674 203 L 674 204 L 675 205 L 675 206 L 676 206 L 677 205 L 678 205 L 678 205 L 679 205 L 681 204 L 681 203 L 682 203 L 683 203 L 683 203 L 685 203 L 685 203 L 686 203 L 686 203 L 686 203 L 687 203 L 688 202 L 688 200 L 689 198 L 689 196 L 691 195 L 691 195 L 692 193 L 692 193 L 694 192 L 695 192 L 695 190 L 696 190 L 696 189 L 698 189 L 699 190 L 699 190 L 700 191 L 700 191 L 701 192 L 702 192 L 702 192 L 703 192 L 703 193 L 705 191 L 706 190 L 706 190 L 706 190 L 708 188 L 708 187 L 709 187 L 709 185 L 710 184 L 711 182 L 712 181 L 713 180 L 713 179 L 714 179 L 715 179 L 716 179 L 716 180 L 716 180 L 717 181 L 718 181 L 719 182 L 719 182 L 720 180 L 720 177 L 722 177 L 723 177 L 723 177 L 724 176 L 725 175 L 726 174 L 726 173 L 727 173 L 727 172 L 729 171 L 729 171 L 730 171 L 730 172 L 730 172 L 732 172 L 732 172 L 733 176 L 733 177 L 734 179 L 735 180 L 736 179 L 736 180 L 737 180 L 737 180 L 739 180 L 739 180 L 740 180 L 740 179 L 741 179 L 743 179 L 743 179 L 744 179 L 744 180 L 744 180 L 745 181 L 746 182 L 746 181 L 747 181 L 747 182 L 749 183 L 749 183 L 750 183 L 750 183 L 752 183 L 753 183 L 753 183 L 754 183 L 754 183 L 756 183 L 757 183 L 757 183 L 758 183 L 758 182 L 760 182 L 760 180 L 760 179 L 761 178 L 761 177 L 763 176 L 763 175 L 763 175 L 764 175 L 764 176 L 766 177 L 766 178 L 767 179 L 767 179 L 768 180 L 770 180 L 771 180 L 771 179 L 772 179 L 773 180 L 774 180 L 774 181 L 775 181 L 775 182 L 776 183 L 777 184 L 777 185 L 778 186 L 778 188 L 780 190 L 780 191 L 781 192 L 781 192 L 782 192 L 783 192 L 783 192 L 784 191 L 784 190 L 785 190 L 787 191 L 788 193 L 788 194 L 789 196 L 790 196 L 790 196 L 791 196 L 791 195 L 792 195 L 793 194 L 794 191 L 794 191 L 795 189 L 795 189 L 797 187 L 797 186 L 798 183 L 798 180 L 799 176 L 801 173 L 801 171 L 801 168 L 802 166 L 802 165 L 804 165 L 804 162 L 804 161 L 805 159 L 805 158 L 807 158 L 807 157 L 808 158 L 808 159 L 809 162 L 810 164 L 811 163 L 811 163 L 812 163 L 812 163 L 814 162 L 814 162 L 815 162 L 816 162 L 816 162 L 818 159 L 819 159 L 819 158 L 820 157 L 820 157 L 821 157 L 821 157 L 822 158 L 822 157 L 824 156 L 824 154 L 825 154 L 825 153 L 826 152 L 827 152 L 828 151 L 828 151 L 829 151 L 829 151 L 831 151 L 832 152 L 832 152 L 833 153 L 833 154 L 834 153 L 835 153 L 835 152 L 836 152 L 836 153 L 838 154 L 838 154 L 839 154 L 839 155 L 839 155 L 841 155 L 841 155 L 842 155 L 842 154 L 843 153 L 844 151 L 845 148 L 846 146 L 846 144 L 847 139 L 848 138 L 849 138 L 849 138 L 849 140 L 850 141 L 851 143 L 852 142 L 852 143 L 853 145 L 853 147 L 855 150 L 855 151 L 856 154 L 857 156 L 858 157 L 858 157 L 859 157 L 860 157 L 860 157 L 862 156 L 862 156 L 863 154 L 863 154 L 864 154 L 865 154 L 865 154 L 866 154 L 866 155 L 867 154 L 868 154 L 869 153 L 869 152 L 870 151 L 870 148 L 872 148 L 873 146 L 873 146 L 874 145 L 876 146 L 877 146 L 877 147 L 877 148 L 879 148 L 879 148 L 879 148 L 880 147 L 880 144 L 882 141 L 883 138 L 883 135 L 884 133 L 885 131 L 886 130 L 886 130 L 887 130 L 887 129 L 889 129 L 889 128 L 890 128 L 891 127 L 891 127 L 893 126 L 893 126 L 894 126 L 894 128 L 894 127 L 896 127 L 896 127 L 896 125 L 897 123 L 897 120 L 899 117 L 900 112 L 900 111 L 901 108 L 902 106 L 903 104 L 903 102 L 904 100 L 905 96 L 906 92 L 907 88 L 907 84 L 908 80 L 908 79 L 909 77 L 910 77 L 910 79 L 911 78 L 911 76 L 913 76 L 913 75 L 914 74 L 914 72 L 915 70 L 916 68 L 916 67 L 917 66 L 917 64 L 918 62 L 920 59 L 920 55 L 921 50 L 921 46 L 923 42 L 923 38 L 924 34 L 924 33 L 925 32 L 926 32 L 927 32 L 927 32 L 928 33 L 928 35 L 930 38 L 930 41 L 931 41 L 931 42 L 932 42 L 933 43 L 934 44" fill="none" stroke="green" stroke-linecap="round" stroke-linejoin="round" stroke-width="1.5"/><path d="M 53 477 L 54 475 L 54 472 L 55 471 L 55 469 L 57 468 L 58 465 L 58 463 L 59 461 L 60 458 L 61 456 L 61 454 L 62 452 L 62 450 L 63 449 L 64 448 L 64 447 L 65 445 L 65 444 L 67 442 L 67 441 L 68 440 L 68 439 L 69 438 L 70 437 L 71 436 L 71 436 L 72 436 L 72 436 L 74 436 L 75 435 L 76 434 L 76 433 L 78 433 L 78 432 L 78 430 L 78 429 L 79 427 L 80 425 L 81 423 L 81 422 L 82 420 L 82 418 L 84 416 L 84 415 L 85 413 L 85 411 L 86 409 L 87 407 L 88 406 L 89 405 L 89 405 L 90 405 L 91 404 L 92 404 L 92 404 L 93 405 L 93 406 L 94 407 L 95 408 L 95 410 L 96 412 L 96 414 L 97 416 L 98 417 L 98 418 L 99 419 L 99 420 L 101 421 L 101 421 L 102 421 L 102 421 L 103 421 L 105 420 L 106 420 L 106 420 L 107 419 L 108 418 L 108 417 L 109 416 L 109 414 L 110 412 L 111 411 L 112 409 L 112 407 L 113 407 L 113 406 L 115 404 L 115 402 L 116 400 L 116 398 L 116 397 L 118 395 L 119 394 L 119 392 L 120 390 L 120 387 L 122 385 L 122 382 L 122 379 L 123 377 L 123 375 L 125 372 L 125 370 L 126 367 L 126 365 L 127 363 L 128 360 L 129 358 L 129 355 L 130 353 L 130 351 L 132 349 L 132 346 L 133 344 L 134 342 L 134 340 L 135 338 L 136 337 L 136 335 L 137 334 L 137 335 L 138 336 L 139 335 L 139 336 L 140 337 L 140 337 L 142 338 L 142 339 L 143 340 L 144 341 L 145 342 L 146 343 L 146 343 L 147 344 L 147 344 L 149 345 L 150 345 L 150 346 L 151 345 L 151 344 L 152 342 L 153 339 L 153 338 L 154 336 L 154 334 L 155 333 L 156 331 L 156 330 L 157 329 L 157 327 L 159 326 L 160 324 L 160 323 L 161 322 L 162 321 L 164 320 L 164 319 L 165 319 L 166 320 L 167 321 L 167 322 L 167 323 L 168 324 L 169 325 L 170 327 L 170 328 L 171 330 L 171 331 L 173 334 L 173 338 L 174 342 L 174 347 L 176 352 L 176 358 L 177 363 L 177 368 L 178 373 L 180 377 L 180 381 L 181 385 L 181 390 L 182 395 L 183 399 L 183 404 L 184 408 L 184 411 L 185 414 L 187 418 L 187 421 L 188 423 L 188 425 L 190 426 L 190 427 L 191 428 L 191 428 L 192 429 L 193 430 L 194 431 L 194 431 L 195 431 L 195 431 L 196 432 L 197 432 L 197 432 L 198 432 L 198 432 L 200 432 L 200 431 L 201 430 L 201 429 L 203 427 L 204 425 L 204 422 L 205 421 L 205 419 L 207 417 L 208 415 L 208 413 L 209 410 L 209 407 L 211 404 L 211 401 L 211 398 L 211 396 L 212 394 L 213 392 L 214 390 L 214 388 L 215 386 L 215 384 L 217 381 L 217 380 L 218 378 L 218 376 L 219 374 L 220 371 L 221 369 L 221 367 L 222 365 L 223 362 L 224 360 L 225 358 L 225 355 L 226 353 L 226 350 L 227 347 L 228 344 L 228 341 L 229 339 L 229 337 L 230 336 L 231 334 L 231 333 L 232 332 L 232 332 L 234 331 L 235 330 L 235 329 L 236 328 L 238 328 L 238 328 L 239 328 L 239 327 L 240 327 L 241 328 L 241 328 L 242 328 L 242 329 L 243 330 L 244 331 L 245 331 L 245 332 L 246 332 L 246 332 L 248 332 L 248 333 L 249 334 L 249 335 L 249 337 L 251 338 L 252 339 L 252 340 L 253 341 L 255 342 L 255 342 L 256 343 L 256 343 L 256 344 L 258 343 L 258 344 L 259 345 L 259 345 L 260 346 L 261 347 L 262 348 L 262 348 L 263 350 L 263 350 L 265 351 L 265 352 L 266 353 L 266 354 L 267 355 L 268 357 L 269 358 L 269 359 L 270 360 L 270 360 L 271 360 L 272 360 L 272 359 L 273 359 L 273 358 L 275 357 L 275 356 L 276 355 L 276 354 L 277 353 L 278 352 L 279 350 L 279 349 L 280 348 L 280 347 L 283 346 L 283 346 L 284 346 L 284 346 L 286 347 L 286 349 L 286 351 L 287 353 L 287 355 L 288 358 L 289 361 L 289 364 L 290 368 L 290 370 L 292 374 L 292 378 L 293 382 L 293 385 L 294 389 L 295 395 L 296 400 L 297 405 L 297 411 L 298 417 L 299 423 L 300 430 L 300 436 L 301 443 L 301 449 L 302 452 L 303 456 L 303 460 L 304 463 L 304 468 L 306 472 L 306 477 L 306 481 L 307 485 L 307 489 L 309 491 L 309 493 L 310 493 L 310 492 L 311 490 L 313 489 L 313 486 L 314 485 L 314 483 L 315 483 L 316 485 L 316 486 L 317 487 L 317 488 L 318 489 L 319 490 L 320 490 L 320 492 L 321 494 L 321 496 L 323 496 L 323 497 L 324 498 L 324 501 L 325 503 L 326 505 L 327 508 L 327 509 L 328 510 L 328 510 L 330 510 L 330 509 L 330 508 L 331 508 L 331 507 L 333 506 L 333 505 L 334 505 L 334 504 L 335 503 L 336 504 L 337 504 L 337 506 L 338 507 L 338 508 L 340 508 L 340 509 L 341 511 L 342 512 L 342 512 L 344 513 L 344 514 L 344 515 L 345 515 L 345 516 L 346 517 L 347 518 L 347 519 L 348 520 L 348 521 L 350 522 L 351 522 L 351 522 L 352 521 L 353 521 L 354 520 L 354 519 L 355 518 L 355 517 L 357 517 L 358 517 L 358 517 L 359 517 L 359 516 L 361 514 L 361 513 L 361 511 L 362 509 L 362 507 L 364 505 L 364 503 L 365 502 L 365 502 L 367 502 L 367 502 L 368 502 L 368 502 L 369 503 L 371 503 L 371 504 L 372 504 L 372 505 L 373 506 L 374 508 L 374 510 L 375 511 L 375 511 L 376 512 L 377 512 L 378 511 L 378 510 L 379 509 L 379 507 L 381 505 L 381 502 L 382 500 L 382 497 L 382 495 L 384 493 L 384 491 L 385 488 L 386 485 L 386 481 L 388 477 L 388 474 L 389 471 L 389 468 L 389 465 L 391 462 L 391 460 L 392 458 L 392 456 L 393 454 L 394 452 L 395 450 L 395 449 L 396 447 L 396 445 L 398 443 L 398 441 L 399 439 L 399 438 L 400 437 L 401 435 L 402 433 L 402 432 L 403 431 L 403 430 L 404 429 L 405 428 L 405 428 L 406 428 L 406 428 L 408 427 L 408 426 L 409 426 L 409 426 L 410 426 L 412 426 L 412 425 L 413 424 L 413 423 L 415 422 L 416 421 L 416 420 L 417 419 L 417 417 L 419 416 L 419 415 L 419 413 L 420 411 L 420 410 L 421 408 L 422 408 L 422 407 L 423 406 L 423 404 L 425 403 L 425 403 L 426 402 L 426 402 L 427 401 L 428 401 L 429 401 L 430 401 L 430 401 L 431 401 L 432 402 L 433 403 L 433 403 L 434 403 L 434 403 L 435 402 L 436 402 L 436 401 L 437 400 L 437 399 L 439 397 L 439 396 L 439 394 L 440 392 L 440 391 L 442 389 L 442 388 L 443 386 L 443 384 L 444 382 L 446 380 L 446 377 L 447 375 L 447 372 L 448 370 L 449 368 L 450 367 L 450 365 L 451 363 L 452 363 L 453 362 L 453 361 L 454 360 L 454 359 L 456 358 L 456 358 L 457 357 L 457 356 L 458 356 L 459 355 L 460 355 L 460 356 L 461 355 L 461 355 L 463 354 L 464 354 L 464 353 L 464 353 L 466 352 L 466 351 L 467 350 L 467 348 L 468 347 L 469 346 L 470 345 L 470 344 L 471 342 L 471 341 L 473 340 L 473 339 L 474 338 L 475 336 L 475 335 L 477 334 L 477 333 L 477 331 L 478 330 L 478 329 L 479 328 L 480 327 L 480 326 L 481 326 L 481 325 L 483 325 L 483 324 L 484 323 L 484 321 L 485 320 L 486 319 L 487 318 L 487 317 L 488 316 L 488 316 L 490 316 L 491 316 L 491 316 L 492 316 L 492 315 L 494 315 L 494 314 L 494 313 L 495 312 L 495 311 L 497 310 L 497 310 L 497 310 L 498 310 L 498 310 L 500 310 L 500 309 L 501 309 L 501 308 L 502 307 L 503 307 L 504 306 L 505 306 L 505 306 L 506 306 L 507 307 L 508 307 L 508 308 L 508 308 L 509 309 L 510 309 L 511 310 L 511 311 L 512 311 L 512 312 L 514 312 L 514 313 L 515 313 L 515 312 L 516 312 L 517 311 L 517 310 L 518 309 L 518 308 L 519 307 L 521 306 L 521 304 L 522 303 L 522 302 L 523 301 L 524 300 L 524 300 L 525 299 L 525 298 L 526 297 L 527 296 L 528 295 L 528 295 L 529 295 L 529 296 L 531 296 L 531 296 L 532 297 L 532 297 L 533 298 L 535 300 L 535 301 L 535 302 L 536 303 L 536 304 L 538 305 L 538 306 L 538 307 L 539 307 L 539 308 L 541 308 L 541 309 L 542 309 L 542 310 L 543 309 L 544 310 L 545 310 L 545 311 L 546 310 L 546 310 L 548 309 L 549 308 L 549 307 L 550 306 L 550 304 L 552 303 L 552 301 L 552 299 L 553 298 L 553 296 L 554 295 L 555 293 L 555 292 L 556 291 L 556 289 L 558 288 L 558 286 L 559 284 L 559 283 L 560 281 L 561 280 L 562 279 L 562 277 L 563 276 L 564 275 L 565 274 L 566 273 L 566 272 L 567 271 L 567 270 L 568 269 L 569 268 L 569 267 L 570 266 L 570 264 L 572 263 L 572 262 L 573 261 L 573 258 L 573 256 L 575 254 L 575 253 L 576 252 L 576 250 L 577 249 L 579 247 L 579 246 L 580 245 L 580 245 L 581 245 L 582 245 L 582 244 L 583 243 L 583 243 L 584 243 L 585 242 L 586 242 L 586 242 L 587 244 L 587 245 L 589 246 L 589 247 L 590 248 L 590 249 L 591 249 L 592 250 L 593 249 L 593 249 L 594 248 L 594 247 L 596 247 L 596 248 L 597 249 L 597 249 L 597 249 L 599 249 L 599 249 L 600 248 L 600 246 L 601 244 L 602 243 L 603 242 L 603 240 L 604 240 L 604 239 L 606 239 L 606 239 L 607 240 L 608 240 L 608 241 L 610 241 L 610 241 L 611 240 L 611 240 L 611 239 L 612 239 L 613 240 L 613 240 L 614 241 L 614 243 L 616 244 L 616 245 L 617 246 L 617 246 L 618 247 L 619 247 L 620 247 L 620 246 L 621 246 L 621 245 L 623 244 L 624 244 L 624 244 L 625 243 L 625 243 L 627 243 L 627 243 L 627 243 L 628 243 L 628 243 L 630 243 L 630 243 L 630 243 L 631 243 L 631 244 L 633 245 L 633 246 L 634 247 L 634 248 L 635 248 L 636 249 L 637 250 L 638 251 L 638 251 L 639 252 L 640 252 L 641 252 L 641 251 L 642 251 L 642 250 L 643 249 L 644 248 L 644 247 L 645 246 L 645 244 L 647 243 L 647 240 L 648 238 L 648 236 L 649 233 L 650 231 L 650 229 L 651 227 L 651 226 L 652 225 L 654 224 L 654 222 L 655 221 L 655 220 L 656 218 L 657 217 L 657 216 L 658 214 L 658 213 L 659 212 L 660 210 L 661 209 L 661 208 L 662 207 L 662 206 L 664 206 L 664 205 L 665 204 L 665 203 L 666 202 L 668 201 L 668 200 L 668 199 L 669 198 L 669 197 L 671 196 L 671 195 L 671 194 L 672 194 L 672 194 L 674 195 L 674 195 L 675 195 L 675 195 L 676 195 L 677 195 L 678 195 L 678 195 L 679 195 L 681 194 L 681 194 L 682 193 L 683 193 L 683 193 L 685 193 L 685 193 L 686 193 L 686 193 L 686 193 L 687 192 L 688 191 L 688 191 L 689 190 L 689 189 L 691 189 L 691 188 L 692 188 L 692 187 L 694 187 L 695 187 L 695 186 L 696 186 L 696 186 L 698 185 L 699 185 L 699 184 L 700 183 L 700 183 L 701 182 L 702 181 L 702 180 L 703 179 L 703 178 L 705 177 L 706 177 L 706 176 L 706 176 L 708 176 L 708 175 L 709 174 L 709 174 L 710 173 L 711 173 L 712 172 L 713 172 L 713 171 L 714 171 L 715 170 L 716 170 L 716 169 L 716 169 L 717 168 L 718 168 L 719 167 L 719 166 L 720 165 L 720 164 L 722 164 L 723 164 L 723 164 L 724 164 L 725 164 L 726 163 L 726 163 L 727 162 L 727 162 L 729 161 L 729 161 L 730 161 L 730 162 L 730 162 L 732 162 L 732 162 L 733 164 L 733 165 L 734 166 L 735 166 L 736 166 L 736 166 L 737 166 L 737 166 L 739 166 L 739 166 L 740 166 L 740 166 L 741 167 L 743 168 L 743 168 L 744 169 L 744 169 L 744 170 L 745 171 L 746 171 L 746 171 L 747 171 L 747 171 L 749 171 L 749 171 L 750 171 L 750 171 L 752 171 L 753 171 L 753 171 L 754 171 L 754 171 L 756 171 L 757 171 L 757 170 L 758 170 L 758 170 L 760 169 L 760 169 L 760 168 L 761 168 L 761 167 L 763 167 L 763 167 L 763 167 L 764 167 L 764 167 L 766 168 L 766 169 L 767 169 L 767 170 L 768 170 L 770 170 L 771 170 L 771 170 L 772 171 L 773 171 L 774 172 L 774 172 L 775 173 L 775 174 L 776 174 L 777 174 L 777 174 L 778 175 L 778 176 L 780 177 L 780 177 L 781 177 L 781 178 L 782 178 L 783 178 L 783 179 L 784 179 L 784 179 L 785 179 L 787 179 L 788 178 L 788 177 L 789 176 L 790 175 L 790 174 L 791 173 L 791 172 L 792 170 L 793 168 L 794 166 L 794 164 L 795 161 L 795 159 L 797 157 L 797 154 L 798 152 L 798 150 L 799 148 L 801 146 L 801 145 L 801 143 L 802 143 L 802 142 L 804 142 L 804 142 L 804 141 L 805 141 L 805 141 L 807 140 L 807 140 L 808 140 L 808 141 L 809 142 L 810 144 L 811 145 L 811 145 L 812 146 L 812 146 L 814 146 L 814 146 L 815 147 L 816 146 L 816 146 L 818 146 L 819 145 L 819 145 L 820 144 L 820 144 L 821 144 L 821 144 L 822 144 L 822 142 L 824 140 L 824 139 L 825 137 L 825 136 L 826 135 L 827 135 L 828 134 L 828 134 L 829 134 L 829 134 L 831 134 L 832 134 L 832 134 L 833 135 L 833 135 L 834 135 L 835 134 L 835 134 L 836 133 L 836 132 L 838 132 L 838 132 L 839 132 L 839 133 L 839 133 L 841 133 L 841 133 L 842 133 L 842 132 L 843 132 L 844 131 L 845 130 L 846 129 L 846 128 L 847 127 L 848 127 L 849 127 L 849 127 L 849 128 L 850 129 L 851 130 L 852 131 L 852 132 L 853 132 L 853 133 L 855 134 L 855 135 L 856 136 L 857 137 L 858 138 L 858 139 L 859 140 L 860 140 L 860 141 L 862 141 L 862 141 L 863 142 L 863 142 L 864 142 L 865 141 L 865 141 L 866 141 L 866 142 L 867 141 L 868 141 L 869 140 L 869 140 L 870 139 L 870 137 L 872 136 L 873 135 L 873 135 L 874 134 L 876 133 L 877 133 L 877 132 L 877 131 L 879 130 L 879 129 L 879 128 L 880 127 L 880 125 L 882 124 L 883 122 L 883 121 L 884 120 L 885 119 L 886 119 L 886 117 L 887 116 L 887 115 L 889 113 L 889 112 L 890 110 L 891 109 L 891 108 L 893 107 L 893 105 L 894 104 L 894 102 L 894 100 L 896 97 L 896 95 L 896 93 L 897 91 L 897 89 L 899 86 L 900 84 L 900 82 L 901 80 L 902 78 L 903 76 L 903 73 L 904 71 L 905 69 L 906 67 L 907 65 L 907 64 L 908 62 L 908 61 L 909 59 L 910 58 L 910 56 L 911 54 L 911 52 L 913 49 L 913 47 L 914 45 L 914 43 L 915 41 L 916 40 L 916 38 L 917 36 L 917 35 L 918 33 L 920 32 L 920 29 L 921 27 L 921 25 L 923 23 L 923 22 L 924 21 L 924 20 L 925 20 L 926 20 L 927 19 L 927 19 L 928 20 L 928 20 L 930 21 L 930 22 L 931 22 L 931 22 L 932 22 L 933 23 L 934 23" fill="none" stroke="blue" stroke-linecap="round" stroke-linejoin="round" stroke-width="1.5"/><path d="M 53 452 L 54 451 L 54 450 L 55 449 L 55 447 L 57 446 L 58 443 L 58 439 L 59 438 L 60 436 L 61 433 L 61 430 L 62 427 L 62 425 L 63 424 L 64 423 L 64 424 L 65 425 L 65 425 L 67 424 L 67 423 L 68 423 L 68 423 L 69 425 L 70 426 L 71 427 L 71 427 L 72 427 L 72 427 L 74 427 L 75 426 L 76 421 L 76 417 L 78 415 L 78 413 L 78 410 L 78 408 L 79 405 L 80 402 L 81 398 L 81 396 L 82 393 L 82 390 L 84 387 L 84 386 L 85 387 L 85 384 L 86 384 L 87 384 L 88 387 L 89 388 L 89 388 L 90 388 L 91 388 L 92 389 L 92 389 L 93 387 L 93 386 L 94 385 L 95 385 L 95 383 L 96 382 L 96 384 L 97 387 L 98 387 L 98 388 L 99 392 L 99 396 L 101 399 L 101 399 L 102 399 L 102 399 L 103 397 L 105 394 L 106 393 L 106 393 L 107 393 L 108 392 L 108 391 L 109 390 L 109 390 L 110 392 L 111 392 L 112 393 L 112 393 L 113 392 L 113 390 L 115 387 L 115 382 L 116 379 L 116 375 L 116 372 L 118 369 L 119 365 L 119 362 L 120 360 L 120 358 L 122 353 L 122 349 L 122 347 L 123 346 L 123 344 L 125 343 L 125 342 L 126 340 L 126 339 L 127 339 L 128 338 L 129 332 L 129 328 L 130 325 L 130 323 L 132 321 L 132 319 L 133 316 L 134 315 L 134 314 L 135 313 L 136 311 L 136 310 L 137 312 L 137 312 L 138 309 L 139 309 L 139 308 L 140 308 L 140 307 L 142 307 L 142 308 L 143 309 L 144 310 L 145 311 L 146 312 L 146 313 L 147 315 L 147 316 L 149 318 L 150 319 L 150 321 L 151 320 L 151 316 L 152 312 L 153 312 L 153 310 L 154 308 L 154 307 L 155 308 L 156 309 L 156 310 L 157 311 L 157 310 L 159 309 L 160 308 L 160 306 L 161 304 L 162 303 L 164 304 L 164 304 L 165 303 L 166 302 L 167 300 L 167 301 L 167 300 L 168 300 L 169 300 L 170 300 L 170 297 L 171 296 L 171 295 L 173 294 L 173 291 L 174 291 L 174 291 L 176 293 L 176 297 L 177 302 L 177 307 L 178 314 L 180 318 L 180 322 L 181 324 L 181 330 L 182 337 L 183 343 L 183 354 L 184 363 L 184 369 L 185 378 L 187 390 L 187 402 L 188 405 L 188 406 L 190 406 L 190 407 L 191 408 L 191 409 L 192 412 L 193 415 L 194 417 L 194 418 L 195 418 L 195 418 L 196 418 L 197 419 L 197 419 L 198 420 L 198 420 L 200 419 L 200 416 L 201 415 L 201 412 L 203 407 L 204 402 L 204 396 L 205 393 L 205 390 L 207 386 L 208 382 L 208 378 L 209 374 L 209 371 L 211 367 L 211 365 L 211 364 L 211 362 L 212 362 L 213 363 L 214 365 L 214 365 L 215 366 L 215 365 L 217 359 L 217 358 L 218 356 L 218 352 L 219 349 L 220 346 L 221 342 L 221 339 L 222 334 L 223 330 L 224 325 L 225 321 L 225 318 L 226 315 L 226 314 L 227 313 L 228 312 L 228 312 L 229 312 L 229 312 L 230 311 L 231 313 L 231 315 L 232 316 L 232 317 L 234 318 L 235 318 L 235 319 L 236 318 L 238 318 L 238 318 L 239 319 L 239 318 L 240 318 L 241 318 L 241 318 L 242 319 L 242 317 L 243 317 L 244 318 L 245 318 L 245 318 L 246 318 L 246 318 L 248 317 L 248 318 L 249 319 L 249 318 L 249 320 L 251 320 L 252 321 L 252 322 L 253 325 L 255 327 L 255 328 L 256 331 L 256 331 L 256 331 L 258 331 L 258 332 L 259 333 L 259 334 L 260 336 L 261 336 L 262 335 L 262 335 L 263 335 L 263 334 L 265 333 L 265 332 L 266 333 L 266 332 L 267 332 L 268 333 L 269 336 L 269 338 L 270 341 L 270 342 L 271 342 L 272 340 L 272 337 L 273 335 L 273 333 L 275 332 L 275 331 L 276 329 L 276 328 L 277 327 L 278 327 L 279 327 L 279 327 L 280 327 L 280 328 L 283 331 L 283 332 L 284 332 L 284 331 L 286 329 L 286 327 L 286 326 L 287 326 L 287 327 L 288 325 L 289 325 L 289 323 L 290 323 L 290 326 L 292 328 L 292 329 L 293 332 L 293 337 L 294 342 L 295 343 L 296 346 L 297 350 L 297 352 L 298 354 L 299 358 L 300 360 L 300 364 L 301 369 L 301 376 L 302 382 L 303 388 L 303 391 L 304 396 L 304 406 L 306 413 L 306 419 L 306 428 L 307 441 L 307 456 L 309 457 L 309 464 L 310 466 L 310 461 L 311 458 L 313 456 L 313 453 L 314 453 L 314 455 L 315 455 L 316 458 L 316 459 L 317 458 L 317 458 L 318 458 L 319 457 L 320 456 L 320 455 L 321 453 L 321 452 L 323 452 L 323 453 L 324 455 L 324 460 L 325 465 L 326 469 L 327 479 L 327 483 L 328 485 L 328 487 L 330 485 L 330 483 L 330 481 L 331 481 L 331 479 L 333 479 L 333 478 L 334 478 L 334 482 L 335 485 L 336 483 L 337 482 L 337 482 L 338 481 L 338 481 L 340 481 L 340 481 L 341 482 L 342 482 L 342 483 L 344 485 L 344 488 L 344 491 L 345 492 L 345 496 L 346 498 L 347 502 L 347 502 L 348 502 L 348 502 L 350 499 L 351 499 L 351 499 L 352 499 L 353 498 L 354 497 L 354 495 L 355 493 L 355 493 L 357 493 L 358 494 L 358 493 L 359 491 L 359 487 L 361 482 L 361 480 L 361 478 L 362 475 L 362 474 L 364 475 L 364 478 L 365 481 L 365 481 L 367 481 L 367 481 L 368 481 L 368 481 L 369 480 L 371 480 L 371 480 L 372 480 L 372 480 L 373 480 L 374 481 L 374 486 L 375 488 L 375 488 L 376 490 L 377 493 L 378 490 L 378 486 L 379 481 L 379 478 L 381 471 L 381 466 L 382 462 L 382 457 L 382 454 L 384 453 L 384 452 L 385 449 L 386 446 L 386 443 L 388 442 L 388 441 L 389 439 L 389 436 L 389 434 L 391 432 L 391 431 L 392 430 L 392 429 L 393 427 L 394 426 L 395 424 L 395 424 L 396 421 L 396 421 L 398 421 L 398 423 L 399 424 L 399 424 L 400 422 L 401 419 L 402 416 L 402 413 L 403 412 L 403 412 L 404 411 L 405 411 L 405 412 L 406 412 L 406 412 L 408 412 L 408 412 L 409 412 L 409 412 L 410 412 L 412 411 L 412 409 L 413 407 L 413 405 L 415 401 L 416 399 L 416 396 L 417 393 L 417 389 L 419 386 L 419 383 L 419 382 L 420 382 L 420 382 L 421 383 L 422 383 L 422 384 L 423 384 L 423 386 L 425 390 L 425 390 L 426 391 L 426 391 L 427 390 L 428 390 L 429 389 L 430 389 L 430 389 L 431 391 L 432 392 L 433 393 L 433 393 L 434 393 L 434 393 L 435 392 L 436 392 L 436 389 L 437 387 L 437 383 L 439 379 L 439 377 L 439 373 L 440 369 L 440 365 L 442 362 L 442 359 L 443 356 L 443 353 L 444 350 L 446 348 L 446 346 L 447 345 L 447 346 L 448 346 L 449 346 L 450 347 L 450 347 L 451 347 L 452 348 L 453 349 L 453 351 L 454 351 L 454 350 L 456 349 L 456 349 L 457 349 L 457 349 L 458 348 L 459 348 L 460 348 L 460 348 L 461 348 L 461 347 L 463 345 L 464 345 L 464 344 L 464 343 L 466 342 L 466 342 L 467 338 L 467 334 L 468 330 L 469 328 L 470 325 L 470 323 L 471 322 L 471 321 L 473 319 L 473 318 L 474 318 L 475 318 L 475 319 L 477 319 L 477 317 L 477 317 L 478 317 L 478 317 L 479 317 L 480 318 L 480 318 L 481 317 L 481 317 L 483 317 L 483 313 L 484 308 L 484 304 L 485 302 L 486 300 L 487 300 L 487 300 L 488 300 L 488 300 L 490 301 L 491 301 L 491 301 L 492 301 L 492 300 L 494 299 L 494 298 L 494 297 L 495 297 L 495 296 L 497 295 L 497 293 L 497 293 L 498 294 L 498 294 L 500 294 L 500 293 L 501 293 L 501 292 L 502 293 L 503 294 L 504 295 L 505 296 L 505 296 L 506 296 L 507 295 L 508 294 L 508 294 L 508 294 L 509 295 L 510 296 L 511 298 L 511 299 L 512 299 L 512 300 L 514 301 L 514 302 L 515 303 L 515 301 L 516 299 L 517 296 L 517 294 L 518 291 L 518 289 L 519 288 L 521 286 L 521 285 L 522 284 L 522 283 L 523 283 L 524 282 L 524 283 L 525 283 L 525 285 L 526 287 L 527 288 L 528 288 L 528 289 L 529 289 L 529 287 L 531 286 L 531 286 L 532 287 L 532 286 L 533 284 L 535 284 L 535 285 L 535 286 L 536 286 L 536 287 L 538 287 L 538 288 L 538 289 L 539 290 L 539 291 L 541 292 L 541 295 L 542 297 L 542 298 L 543 298 L 544 298 L 545 300 L 545 302 L 546 301 L 546 300 L 548 298 L 549 297 L 549 295 L 550 294 L 550 290 L 552 287 L 552 283 L 552 279 L 553 276 L 553 273 L 554 271 L 555 269 L 555 268 L 556 267 L 556 266 L 558 266 L 558 266 L 559 265 L 559 266 L 560 266 L 561 265 L 562 264 L 562 264 L 563 264 L 564 263 L 565 262 L 566 261 L 566 259 L 567 257 L 567 256 L 568 255 L 569 254 L 569 252 L 570 250 L 570 250 L 572 249 L 572 249 L 573 245 L 573 241 L 573 236 L 575 232 L 575 230 L 576 229 L 576 227 L 577 226 L 579 225 L 579 225 L 580 225 L 580 225 L 581 225 L 582 225 L 582 225 L 583 225 L 583 225 L 584 225 L 585 225 L 586 226 L 586 226 L 587 225 L 587 227 L 589 229 L 589 230 L 590 230 L 590 233 L 591 233 L 592 235 L 593 235 L 593 233 L 594 232 L 594 233 L 596 233 L 596 233 L 597 234 L 597 235 L 597 235 L 599 235 L 599 234 L 600 232 L 600 230 L 601 227 L 602 226 L 603 224 L 603 223 L 604 222 L 604 222 L 606 221 L 606 221 L 607 221 L 608 221 L 608 221 L 610 221 L 610 221 L 611 221 L 611 221 L 611 221 L 612 221 L 613 221 L 613 222 L 614 223 L 614 225 L 616 227 L 616 230 L 617 232 L 617 234 L 618 235 L 619 238 L 620 236 L 620 235 L 621 235 L 621 235 L 623 235 L 624 234 L 624 234 L 625 233 L 625 233 L 627 233 L 627 233 L 627 233 L 628 233 L 628 233 L 630 233 L 630 233 L 630 233 L 631 233 L 631 233 L 633 233 L 633 233 L 634 233 L 634 233 L 635 233 L 636 234 L 637 235 L 638 237 L 638 239 L 639 239 L 640 240 L 641 240 L 641 238 L 642 236 L 642 234 L 643 232 L 644 230 L 644 227 L 645 224 L 645 221 L 647 217 L 647 214 L 648 211 L 648 209 L 649 206 L 650 205 L 650 204 L 651 204 L 651 204 L 652 204 L 654 204 L 654 204 L 655 204 L 655 204 L 656 204 L 657 204 L 657 203 L 658 203 L 658 201 L 659 197 L 660 193 L 661 191 L 661 189 L 662 188 L 662 187 L 664 186 L 664 185 L 665 185 L 665 185 L 666 185 L 668 187 L 668 187 L 668 187 L 669 187 L 669 186 L 671 186 L 671 186 L 671 185 L 672 185 L 672 186 L 674 186 L 674 186 L 675 186 L 675 186 L 676 186 L 677 185 L 678 185 L 678 185 L 679 185 L 681 185 L 681 185 L 682 184 L 683 184 L 683 184 L 685 184 L 685 184 L 686 183 L 686 183 L 686 182 L 687 182 L 688 181 L 688 182 L 689 182 L 689 182 L 691 183 L 691 182 L 692 182 L 692 182 L 694 182 L 695 181 L 695 182 L 696 182 L 696 182 L 698 181 L 699 179 L 699 178 L 700 177 L 700 175 L 701 172 L 702 171 L 702 168 L 703 167 L 703 165 L 705 164 L 706 164 L 706 164 L 706 164 L 708 164 L 708 163 L 709 163 L 709 163 L 710 163 L 711 164 L 712 164 L 713 164 L 713 163 L 714 163 L 715 162 L 716 160 L 716 158 L 716 157 L 717 156 L 718 155 L 719 153 L 719 152 L 720 151 L 720 152 L 722 152 L 723 153 L 723 152 L 724 152 L 725 153 L 726 153 L 726 153 L 727 152 L 727 152 L 729 152 L 729 152 L 730 152 L 730 152 L 730 152 L 732 153 L 732 153 L 733 152 L 733 153 L 734 153 L 735 153 L 736 153 L 736 153 L 737 153 L 737 153 L 739 153 L 739 153 L 740 153 L 740 154 L 741 156 L 743 157 L 743 158 L 744 158 L 744 159 L 744 159 L 745 160 L 746 161 L 746 161 L 747 161 L 747 161 L 749 160 L 749 161 L 750 160 L 750 160 L 752 160 L 753 160 L 753 160 L 754 160 L 754 160 L 756 159 L 757 159 L 757 158 L 758 158 L 758 158 L 760 157 L 760 157 L 760 157 L 761 157 L 761 158 L 763 159 L 763 159 L 763 159 L 764 159 L 764 159 L 766 160 L 766 160 L 767 160 L 767 160 L 768 161 L 770 161 L 771 161 L 771 162 L 772 162 L 773 163 L 774 163 L 774 164 L 775 165 L 775 165 L 776 165 L 777 165 L 777 165 L 778 165 L 778 165 L 780 164 L 780 164 L 781 164 L 781 164 L 782 164 L 783 165 L 783 166 L 784 168 L 784 169 L 785 169 L 787 167 L 788 164 L 788 161 L 789 158 L 790 156 L 790 154 L 791 152 L 791 151 L 792 148 L 793 145 L 794 143 L 794 139 L 795 136 L 795 132 L 797 129 L 797 126 L 798 124 L 798 123 L 799 123 L 801 122 L 801 122 L 801 121 L 802 121 L 802 122 L 804 122 L 804 123 L 804 123 L 805 124 L 805 124 L 807 124 L 807 124 L 808 124 L 808 124 L 809 124 L 810 125 L 811 127 L 811 129 L 812 130 L 812 131 L 814 132 L 814 131 L 815 132 L 816 132 L 816 132 L 818 133 L 819 132 L 819 132 L 820 132 L 820 132 L 821 132 L 821 131 L 822 130 L 822 128 L 824 126 L 824 124 L 825 121 L 825 121 L 826 120 L 827 119 L 828 119 L 828 118 L 829 118 L 829 118 L 831 118 L 832 118 L 832 118 L 833 118 L 833 117 L 834 117 L 835 117 L 835 116 L 836 115 L 836 113 L 838 112 L 838 111 L 839 112 L 839 112 L 839 113 L 841 113 L 841 113 L 842 113 L 842 112 L 843 112 L 844 112 L 845 113 L 846 113 L 846 114 L 847 116 L 848 116 L 849 116 L 849 116 L 849 116 L 850 117 L 851 119 L 852 122 L 852 122 L 853 121 L 853 120 L 855 120 L 855 120 L 856 120 L 857 120 L 858 121 L 858 123 L 859 124 L 860 124 L 860 126 L 862 126 L 862 127 L 863 130 L 863 130 L 864 130 L 865 129 L 865 129 L 866 129 L 866 129 L 867 129 L 868 129 L 869 128 L 869 127 L 870 127 L 870 127 L 872 125 L 873 125 L 873 124 L 874 123 L 876 121 L 877 119 L 877 117 L 877 115 L 879 113 L 879 111 L 879 109 L 880 108 L 880 108 L 882 108 L 883 107 L 883 108 L 884 108 L 885 108 L 886 108 L 886 105 L 887 103 L 887 101 L 889 98 L 889 96 L 890 94 L 891 93 L 891 91 L 893 88 L 893 86 L 894 83 L 894 78 L 894 75 L 896 71 L 896 66 L 896 64 L 897 62 L 897 61 L 899 59 L 900 58 L 900 56 L 901 54 L 902 52 L 903 50 L 903 47 L 904 45 L 905 44 L 906 44 L 907 44 L 907 45 L 908 45 L 908 44 L 909 43 L 910 40 L 910 35 L 911 32 L 911 29 L 913 26 L 913 22 L 914 19 L 914 17 L 915 16 L 916 14 L 916 12 L 917 10 L 917 8 L 918 8 L 920 7 L 920 6 L 921 6 L 921 6 L 923 6 L 923 7 L 924 8 L 924 7 L 925 8 L 926 8 L 927 8 L 927 8 L 928 7 L 928 6 L 930 5 L 930 3 L 931 4 L 931 4 L 932 4 L 933 4 L 934 4" fill="none" stroke="red" stroke-linecap="round" stroke-linejoin="round" stroke-width="1.5"/></svg>
